Montserrat-SemiBold.ufo
<glyph name="numbersign" format="2">
  <advance width="707"/>
  <unicode hex="0023"/>
  <outline>
    <contour>
      <point x="400" y="0" type="line"/>
      <point x="481" y="0" type="line"/>
      <point x="567" y="700" type="line"/>
      <point x="486" y="700" type="line"/>
    </contour>
    <contour>
      <point x="25" y="175" type="line"/>
      <point x="649" y="175" type="line"/>
      <point x="649" y="257" type="line"/>
      <point x="25" y="257" type="line"/>
    </contour>
    <contour>
      <point x="140" y="0" type="line"/>
      <point x="221" y="0" type="line"/>
      <point x="308" y="700" type="line"/>
      <point x="227" y="700" type="line"/>
    </contour>
    <contour>
      <point x="58" y="443" type="line"/>
      <point x="682" y="443" type="line"/>
      <point x="681" y="525" type="line"/>
      <point x="58" y="525" type="line"/>
    </contour>
  </outline>
</glyph>
<glyph name="ampersand" format="2">
  <advance width="696"/>
  <unicode hex="0026"/>
  <outline>
    <contour>
      <point x="293" y="-9" type="curve" smooth="yes"/>
      <point x="475" y="-9"/>
      <point x="609" y="109"/>
      <point x="650" y="311" type="curve"/>
      <point x="561" y="340" type="line"/>
      <point x="529" y="169"/>
      <point x="431" y="83"/>
      <point x="300" y="83" type="curve" smooth="yes"/>
      <point x="210" y="83"/>
      <point x="151" y="125"/>
      <point x="151" y="187" type="curve" smooth="yes"/>
      <point x="151" y="246"/>
      <point x="187" y="287"/>
      <point x="303" y="346" type="curve" smooth="yes"/>
      <point x="448" y="417"/>
      <point x="504" y="474"/>
      <point x="504" y="557" type="curve" smooth="yes"/>
      <point x="504" y="650"/>
      <point x="433" y="707"/>
      <point x="324" y="707" type="curve" smooth="yes"/>
      <point x="205" y="707"/>
      <point x="128" y="642"/>
      <point x="128" y="546" type="curve" smooth="yes"/>
      <point x="128" y="490"/>
      <point x="152" y="443"/>
      <point x="222" y="376" type="curve" smooth="yes"/>
      <point x="618" y="-11" type="line"/>
      <point x="679" y="62" type="line"/>
      <point x="309" y="423" type="line" smooth="yes"/>
      <point x="245" y="486"/>
      <point x="229" y="512"/>
      <point x="229" y="548" type="curve" smooth="yes"/>
      <point x="229" y="594"/>
      <point x="264" y="627"/>
      <point x="324" y="627" type="curve" smooth="yes"/>
      <point x="380" y="627"/>
      <point x="411" y="598"/>
      <point x="411" y="555" type="curve" smooth="yes"/>
      <point x="411" y="509"/>
      <point x="374" y="475"/>
      <point x="255" y="414" type="curve" smooth="yes"/>
      <point x="105" y="337"/>
      <point x="43" y="273"/>
      <point x="43" y="175" type="curve" smooth="yes"/>
      <point x="43" y="67"/>
      <point x="148" y="-9"/>
    </contour>
  </outline>
</glyph>
<glyph name="three" format="2">
  <advance width="577"/>
  <unicode hex="0033"/>
  <outline>
    <contour>
      <point x="263" y="-9" type="curve" smooth="yes"/>
      <point x="446" y="-9"/>
      <point x="534" y="90"/>
      <point x="534" y="208" type="curve" smooth="yes"/>
      <point x="534" y="327"/>
      <point x="448" y="412"/>
      <point x="278" y="412" type="curve" smooth="yes"/>
      <point x="242" y="412" type="line"/>
      <point x="303" y="376" type="line"/>
      <point x="506" y="622" type="line"/>
      <point x="506" y="700" type="line"/>
      <point x="36" y="700" type="line"/>
      <point x="36" y="601" type="line"/>
      <point x="416" y="601" type="line"/>
      <point x="399" y="646" type="line"/>
      <point x="196" y="400" type="line"/>
      <point x="196" y="319" type="line"/>
      <point x="256" y="319" type="line" smooth="yes"/>
      <point x="369" y="319"/>
      <point x="419" y="275"/>
      <point x="419" y="207" type="curve" smooth="yes"/>
      <point x="419" y="137"/>
      <point x="361" y="93"/>
      <point x="262" y="93" type="curve" smooth="yes"/>
      <point x="180" y="93"/>
      <point x="103" y="122"/>
      <point x="54" y="165" type="curve"/>
      <point x="2" y="74" type="line"/>
      <point x="65" y="22"/>
      <point x="164" y="-9"/>
    </contour>
  </outline>
</glyph>
<glyph name="D" format="2">
  <advance width="826"/>
  <unicode hex="0044"/>
  <anchor x="381" y="0" name="bottom"/>
  <anchor x="203" y="356" name="center"/>
  <anchor x="377" y="699" name="top"/>
  <outline>
    <contour>
      <point x="100" y="0" type="line"/>
      <point x="400" y="0" type="line" smooth="yes"/>
      <point x="626" y="0"/>
      <point x="780" y="141"/>
      <point x="780" y="350" type="curve" smooth="yes"/>
      <point x="780" y="559"/>
      <point x="626" y="700"/>
      <point x="400" y="700" type="curve" smooth="yes"/>
      <point x="100" y="700" type="line"/>
    </contour>
    <contour>
      <point x="214" y="99" type="line"/>
      <point x="214" y="601" type="line"/>
      <point x="394" y="601" type="line" smooth="yes"/>
      <point x="559" y="601"/>
      <point x="665" y="501"/>
      <point x="665" y="350" type="curve" smooth="yes"/>
      <point x="665" y="199"/>
      <point x="559" y="99"/>
      <point x="394" y="99" type="curve" smooth="yes"/>
    </contour>
  </outline>
</glyph>
<glyph name="E" format="2">
  <advance width="670"/>
  <unicode hex="0045"/>
  <anchor x="361" y="0" name="bottom"/>
  <anchor x="616" y="0" name="ogonek"/>
  <anchor x="352" y="700" name="top"/>
  <anchor x="19" y="700" name="topleft"/>
  <outline>
    <contour>
      <point x="205" y="404" type="line"/>
      <point x="205" y="307" type="line"/>
      <point x="559" y="307" type="line"/>
      <point x="559" y="404" type="line"/>
    </contour>
    <contour>
      <point x="214" y="99" type="line"/>
      <point x="214" y="601" type="line"/>
      <point x="602" y="601" type="line"/>
      <point x="602" y="700" type="line"/>
      <point x="100" y="700" type="line"/>
      <point x="100" y="0" type="line"/>
      <point x="616" y="0" type="line"/>
      <point x="616" y="99" type="line"/>
    </contour>
  </outline>
</glyph>
<glyph name="currency" format="2">
  <advance width="700"/>
  <unicode hex="00A4"/>
  <outline>
    <contour>
      <point x="144" y="457" type="line"/>
      <point x="207" y="525" type="line"/>
      <point x="92" y="639" type="line"/>
      <point x="30" y="571" type="line"/>
    </contour>
    <contour>
      <point x="92" y="-4" type="line"/>
      <point x="207" y="110" type="line"/>
      <point x="144" y="178" type="line"/>
      <point x="30" y="64" type="line"/>
    </contour>
    <contour>
      <point x="607" y="-4" type="line"/>
      <point x="670" y="64" type="line"/>
      <point x="555" y="178" type="line"/>
      <point x="492" y="110" type="line"/>
    </contour>
    <contour>
      <point x="555" y="457" type="line"/>
      <point x="670" y="571" type="line"/>
      <point x="607" y="639" type="line"/>
      <point x="492" y="525" type="line"/>
    </contour>
    <contour>
      <point x="350" y="57" type="curve" smooth="yes"/>
      <point x="499" y="57"/>
      <point x="620" y="175"/>
      <point x="620" y="319" type="curve" smooth="yes"/>
      <point x="620" y="465"/>
      <point x="499" y="583"/>
      <point x="350" y="583" type="curve" smooth="yes"/>
      <point x="202" y="583"/>
      <point x="81" y="465"/>
      <point x="81" y="319" type="curve" smooth="yes"/>
      <point x="81" y="175"/>
      <point x="202" y="57"/>
    </contour>
    <contour>
      <point x="350" y="147" type="curve" smooth="yes"/>
      <point x="251" y="147"/>
      <point x="170" y="225"/>
      <point x="170" y="319" type="curve" smooth="yes"/>
      <point x="170" y="415"/>
      <point x="251" y="493"/>
      <point x="350" y="493" type="curve" smooth="yes"/>
      <point x="449" y="493"/>
      <point x="532" y="415"/>
      <point x="532" y="319" type="curve" smooth="yes"/>
      <point x="532" y="225"/>
      <point x="449" y="147"/>
    </contour>
  </outline>
</glyph>
<glyph name="degree" format="2">
  <advance width="419"/>
  <unicode hex="00B0"/>
  <outline>
    <contour>
      <point x="209" y="377" type="curve" smooth="yes"/>
      <point x="303" y="377"/>
      <point x="376" y="450"/>
      <point x="376" y="542" type="curve" smooth="yes"/>
      <point x="376" y="634"/>
      <point x="303" y="707"/>
      <point x="209" y="707" type="curve" smooth="yes"/>
      <point x="115" y="707"/>
      <point x="42" y="634"/>
      <point x="42" y="542" type="curve" smooth="yes"/>
      <point x="42" y="450"/>
      <point x="115" y="377"/>
    </contour>
    <contour>
      <point x="209" y="437" type="curve" smooth="yes"/>
      <point x="150" y="437"/>
      <point x="105" y="481"/>
      <point x="105" y="542" type="curve" smooth="yes"/>
      <point x="105" y="603"/>
      <point x="150" y="647"/>
      <point x="209" y="647" type="curve" smooth="yes"/>
      <point x="268" y="647"/>
      <point x="313" y="602"/>
      <point x="313" y="542" type="curve" smooth="yes"/>
      <point x="313" y="482"/>
      <point x="268" y="437"/>
    </contour>
  </outline>
</glyph>
<glyph name="AE" format="2">
  <advance width="1055"/>
  <unicode hex="00C6"/>
  <anchor x="541" y="0" name="bottom"/>
  <anchor x="541" y="700" name="top"/>
  <outline>
    <contour>
      <point x="-3" y="0" type="line"/>
      <point x="115" y="0" type="line"/>
      <point x="493" y="652" type="line"/>
      <point x="423" y="601" type="line"/>
      <point x="523" y="601" type="line"/>
      <point x="523" y="700" type="line"/>
      <point x="409" y="700" type="line"/>
    </contour>
    <contour>
      <point x="182" y="168" type="line"/>
      <point x="523" y="168" type="line"/>
      <point x="523" y="260" type="line"/>
      <point x="187" y="260" type="line"/>
    </contour>
    <contour>
      <point x="590" y="404" type="line"/>
      <point x="589" y="307" type="line"/>
      <point x="944" y="307" type="line"/>
      <point x="944" y="404" type="line"/>
    </contour>
    <contour>
      <point x="599" y="99" type="line"/>
      <point x="599" y="601" type="line"/>
      <point x="987" y="601" type="line"/>
      <point x="987" y="700" type="line"/>
      <point x="485" y="700" type="line"/>
      <point x="485" y="0" type="line"/>
      <point x="1001" y="0" type="line"/>
      <point x="1001" y="99" type="line"/>
    </contour>
  </outline>
</glyph>
<glyph name="germandbls" format="2">
  <advance width="680"/>
  <unicode hex="00DF"/>
  <outline>
    <contour>
      <point x="396" y="-6" type="curve" smooth="yes"/>
      <point x="538" y="-6"/>
      <point x="640" y="71"/>
      <point x="640" y="203" type="curve" smooth="yes"/>
      <point x="640" y="328"/>
      <point x="542" y="399"/>
      <point x="421" y="399" type="curve"/>
      <point x="391" y="355" type="line"/>
      <point x="475" y="355"/>
      <point x="580" y="425"/>
      <point x="580" y="547" type="curve" smooth="yes"/>
      <point x="580" y="661"/>
      <point x="491" y="748"/>
      <point x="343" y="748" type="curve" smooth="yes"/>
      <point x="197" y="748"/>
      <point x="87" y="662"/>
      <point x="87" y="491" type="curve" smooth="yes"/>
      <point x="87" y="0" type="line"/>
      <point x="197" y="0" type="line"/>
      <point x="197" y="501" type="line" smooth="yes"/>
      <point x="197" y="601"/>
      <point x="252" y="653"/>
      <point x="343" y="653" type="curve" smooth="yes"/>
      <point x="427" y="653"/>
      <point x="474" y="609"/>
      <point x="474" y="542" type="curve" smooth="yes"/>
      <point x="474" y="466"/>
      <point x="416" y="416"/>
      <point x="322" y="415" type="curve"/>
      <point x="322" y="322" type="line"/>
      <point x="378" y="322" type="line" smooth="yes"/>
      <point x="469" y="322"/>
      <point x="529" y="281"/>
      <point x="529" y="206" type="curve" smooth="yes"/>
      <point x="529" y="131"/>
      <point x="476" y="89"/>
      <point x="391" y="89" type="curve" smooth="yes"/>
      <point x="349" y="89"/>
      <point x="322" y="93"/>
      <point x="296" y="102" type="curve"/>
      <point x="279" y="10" type="line"/>
      <point x="311" y="-1"/>
      <point x="356" y="-6"/>
    </contour>
  </outline>
</glyph>
<glyph name="eogonek" format="2">
  <advance width="617"/>
  <unicode hex="0119"/>
  <anchor x="317" y="0" name="bottom"/>
  <anchor x="317" y="532" name="top"/>
  <outline>
    <contour>
      <point x="439" y="-226" type="curve" smooth="yes"/>
      <point x="473" y="-226"/>
      <point x="507" y="-217"/>
      <point x="532" y="-203" type="curve"/>
      <point x="512" y="-147" type="line"/>
      <point x="496" y="-157"/>
      <point x="472" y="-163"/>
      <point x="451" y="-163" type="curve" smooth="yes"/>
      <point x="416" y="-163"/>
      <point x="391" y="-146"/>
      <point x="391" y="-110" type="curve" smooth="yes"/>
      <point x="391" y="-71"/>
      <point x="416" y="-26"/>
      <point x="503" y="44" type="curve" smooth="yes"/>
      <point x="518" y="56"/>
      <point x="531" y="67"/>
      <point x="542" y="80" type="curve"/>
      <point x="482" y="151" type="line"/>
      <point x="444" y="110"/>
      <point x="394" y="90"/>
      <point x="333" y="90" type="curve" smooth="yes"/>
      <point x="222" y="90"/>
      <point x="148" y="159"/>
      <point x="148" y="260" type="curve" smooth="yes"/>
      <point x="148" y="278" type="line" smooth="yes"/>
      <point x="148" y="377"/>
      <point x="215" y="445"/>
      <point x="311" y="445" type="curve" smooth="yes"/>
      <point x="407" y="445"/>
      <point x="474" y="377"/>
      <point x="473" y="281" type="curve"/>
      <point x="517" y="307" type="line"/>
      <point x="127" y="307" type="line"/>
      <point x="127" y="228" type="line"/>
      <point x="575" y="228" type="line"/>
      <point x="576" y="239"/>
      <point x="577" y="253"/>
      <point x="577" y="262" type="curve" smooth="yes"/>
      <point x="577" y="427"/>
      <point x="467" y="538"/>
      <point x="311" y="538" type="curve" smooth="yes"/>
      <point x="155" y="538"/>
      <point x="40" y="424"/>
      <point x="40" y="266" type="curve" smooth="yes"/>
      <point x="40" y="107"/>
      <point x="155" y="-6"/>
      <point x="330" y="-6" type="curve" smooth="yes"/>
      <point x="367" y="-6"/>
      <point x="402" y="-1"/>
      <point x="433" y="9" type="curve"/>
      <point x="393" y="25" type="line"/>
      <point x="338" y="-15"/>
      <point x="314" y="-71"/>
      <point x="314" y="-117" type="curve" smooth="yes"/>
      <point x="314" y="-183"/>
      <point x="362" y="-226"/>
    </contour>
  </outline>
</glyph>
<glyph name="Schwa" format="2">
  <advance width="817"/>
  <unicode hex="018F"/>
  <anchor x="409" y="0" name="bottom"/>
  <anchor x="409" y="700" name="top"/>
  <outline>
    <contour>
      <point x="409" y="-9" type="curve" smooth="yes"/>
      <point x="617" y="-9"/>
      <point x="771" y="143"/>
      <point x="771" y="351" type="curve" smooth="yes"/>
      <point x="771" y="557"/>
      <point x="617" y="709"/>
      <point x="404" y="709" type="curve" smooth="yes"/>
      <point x="286" y="709"/>
      <point x="182" y="669"/>
      <point x="116" y="604" type="curve"/>
      <point x="185" y="525" type="line"/>
      <point x="241" y="580"/>
      <point x="320" y="607"/>
      <point x="403" y="607" type="curve" smooth="yes"/>
      <point x="544" y="607"/>
      <point x="656" y="499"/>
      <point x="656" y="355" type="curve" smooth="yes"/>
      <point x="656" y="344" type="line" smooth="yes"/>
      <point x="656" y="192"/>
      <point x="558" y="90"/>
      <point x="409" y="90" type="curve" smooth="yes"/>
      <point x="260" y="90"/>
      <point x="160" y="192"/>
      <point x="160" y="350" type="curve"/>
      <point x="123" y="289" type="line"/>
      <point x="669" y="289" type="line"/>
      <point x="669" y="386" type="line"/>
      <point x="46" y="386" type="line"/>
      <point x="46" y="355" type="line" smooth="yes"/>
      <point x="46" y="144"/>
      <point x="200" y="-9"/>
    </contour>
  </outline>
</glyph>
<glyph name="dblgravecomb" format="2">
  <unicode hex="030F"/>
  <anchor x="300" y="532" name="_top"/>
  <anchor x="300" y="709" name="top"/>
  <outline>
    <contour>
      <point x="345" y="607" type="line"/>
      <point x="436" y="607" type="line"/>
      <point x="350" y="741" type="line"/>
      <point x="236" y="741" type="line"/>
    </contour>
    <contour>
      <point x="164" y="607" type="line"/>
      <point x="255" y="607" type="line"/>
      <point x="170" y="741" type="line"/>
      <point x="56" y="741" type="line"/>
    </contour>
  </outline>
</glyph>
<glyph name="cedillacomb" format="2">
  <unicode hex="0327"/>
  <anchor x="300" y="0" name="_bottom"/>
  <outline>
    <contour>
      <point x="273" y="-226" type="curve" smooth="yes"/>
      <point x="352" y="-226"/>
      <point x="404" y="-190"/>
      <point x="404" y="-133" type="curve" smooth="yes"/>
      <point x="404" y="-89"/>
      <point x="375" y="-55"/>
      <point x="316" y="-49" type="curve"/>
      <point x="330" y="7" type="line"/>
      <point x="269" y="7" type="line"/>
      <point x="243" y="-94" type="line"/>
      <point x="272" y="-94" type="line" smooth="yes"/>
      <point x="311" y="-94"/>
      <point x="327" y="-108"/>
      <point x="327" y="-129" type="curve" smooth="yes"/>
      <point x="327" y="-152"/>
      <point x="311" y="-166"/>
      <point x="273" y="-166" type="curve" smooth="yes"/>
      <point x="248" y="-166"/>
      <point x="226" y="-161"/>
      <point x="204" y="-150" type="curve"/>
      <point x="182" y="-205" type="line"/>
      <point x="207" y="-219"/>
      <point x="237" y="-226"/>
    </contour>
  </outline>
</glyph>
<glyph name="Nje-cy" format="2">
  <advance width="1178"/>
  <unicode hex="040A"/>
  <outline>
    <contour>
      <point x="104" y="0" type="line"/>
      <point x="217" y="0" type="line"/>
      <point x="217" y="326" type="line"/>
      <point x="587" y="326" type="line"/>
      <point x="587" y="0" type="line"/>
      <point x="700" y="0" type="line"/>
      <point x="700" y="700" type="line"/>
      <point x="587" y="700" type="line"/>
      <point x="587" y="425" type="line"/>
      <point x="217" y="425" type="line"/>
      <point x="217" y="700" type="line"/>
      <point x="104" y="700" type="line"/>
    </contour>
    <contour>
      <point x="700" y="61" type="line"/>
      <point x="700" y="368" type="line"/>
      <point x="673" y="338" type="line"/>
      <point x="873" y="338" type="line" smooth="yes"/>
      <point x="972" y="338"/>
      <point x="1028" y="295"/>
      <point x="1028" y="216" type="curve" smooth="yes"/>
      <point x="1028" y="136"/>
      <point x="971" y="90"/>
      <point x="873" y="90" type="curve" smooth="yes"/>
      <point x="673" y="90" type="line"/>
    </contour>
    <contour>
      <point x="587" y="0" type="line"/>
      <point x="884" y="0" type="line" smooth="yes"/>
      <point x="1046" y="0"/>
      <point x="1144" y="81"/>
      <point x="1144" y="221" type="curve" smooth="yes"/>
      <point x="1144" y="353"/>
      <point x="1054" y="429"/>
      <point x="899" y="429" type="curve" smooth="yes"/>
      <point x="673" y="429" type="line"/>
      <point x="700" y="395" type="line"/>
      <point x="700" y="700" type="line"/>
      <point x="587" y="700" type="line"/>
    </contour>
  </outline>
</glyph>
<glyph name="Ge-cy" format="2">
  <advance width="581"/>
  <unicode hex="0413"/>
  <anchor x="104" y="0" name="_bottomleft"/>
  <anchor x="104" y="0" name="bottomleft"/>
  <anchor x="492" y="0" name="bottomright"/>
  <anchor x="329" y="700" name="top"/>
  <outline>
    <contour>
      <point x="104" y="0" type="line"/>
      <point x="217" y="0" type="line"/>
      <point x="216" y="629" type="line"/>
      <point x="189" y="601" type="line"/>
      <point x="570" y="601" type="line"/>
      <point x="571" y="700" type="line"/>
      <point x="104" y="700" type="line"/>
    </contour>
  </outline>
</glyph>
<glyph name="De-cy" format="2">
  <advance width="809"/>
  <unicode hex="0414"/>
  <outline>
    <contour>
      <point x="569" y="54" type="line"/>
      <point x="682" y="54" type="line"/>
      <point x="682" y="700" type="line"/>
      <point x="180" y="700" type="line"/>
      <point x="172" y="477" type="line" smooth="yes"/>
      <point x="165" y="262"/>
      <point x="141" y="94"/>
      <point x="38" y="99" type="curve"/>
      <point x="162" y="80" type="line"/>
      <point x="245" y="107"/>
      <point x="266" y="275"/>
      <point x="273" y="466" type="curve" smooth="yes"/>
      <point x="278" y="601" type="line"/>
      <point x="569" y="601" type="line"/>
    </contour>
    <contour>
      <point x="14" y="-151" type="line"/>
      <point x="120" y="-151" type="line"/>
      <point x="121" y="0" type="line"/>
      <point x="678" y="0" type="line"/>
      <point x="678" y="-151" type="line"/>
      <point x="784" y="-151" type="line"/>
      <point x="784" y="99" type="line"/>
      <point x="15" y="99" type="line"/>
    </contour>
  </outline>
</glyph>
<glyph name="Ze-cy" format="2">
  <advance width="646"/>
  <unicode hex="0417"/>
  <anchor x="304" y="0" name="bottom"/>
  <anchor x="321" y="700" name="top"/>
  <outline>
    <contour>
      <point x="31" y="72" type="line"/>
      <point x="249" y="-79"/>
      <point x="592" y="-9"/>
      <point x="592" y="196" type="curve" smooth="yes"/>
      <point x="592" y="304"/>
      <point x="502" y="378"/>
      <point x="362" y="378" type="curve"/>
      <point x="358" y="348" type="line"/>
      <point x="480" y="348"/>
      <point x="563" y="416"/>
      <point x="563" y="517" type="curve" smooth="yes"/>
      <point x="563" y="699"/>
      <point x="269" y="769"/>
      <point x="52" y="649" type="curve"/>
      <point x="88" y="555" type="line"/>
      <point x="242" y="646"/>
      <point x="447" y="618"/>
      <point x="447" y="503" type="curve" smooth="yes"/>
      <point x="447" y="443"/>
      <point x="398" y="407"/>
      <point x="314" y="407" type="curve" smooth="yes"/>
      <point x="163" y="407" type="line"/>
      <point x="163" y="315" type="line"/>
      <point x="322" y="315" type="line" smooth="yes"/>
      <point x="418" y="315"/>
      <point x="476" y="280"/>
      <point x="476" y="213" type="curve" smooth="yes"/>
      <point x="476" y="76"/>
      <point x="221" y="46"/>
      <point x="69" y="157" type="curve"/>
    </contour>
  </outline>
</glyph>
<glyph name="be-cy" format="2">
  <advance width="664"/>
  <unicode hex="0431"/>
  <outline>
    <contour>
      <point x="338" y="-9" type="curve" smooth="yes"/>
      <point x="512" y="-9"/>
      <point x="624" y="97"/>
      <point x="624" y="243" type="curve" smooth="yes"/>
      <point x="624" y="387"/>
      <point x="514" y="490"/>
      <point x="367" y="490" type="curve" smooth="yes"/>
      <point x="252" y="490"/>
      <point x="161" y="426"/>
      <point x="123" y="320" type="curve"/>
      <point x="168" y="271" type="line"/>
      <point x="167" y="310"/>
      <point x="162" y="311"/>
      <point x="162" y="351" type="curve" smooth="yes"/>
      <point x="162" y="568"/>
      <point x="306" y="595"/>
      <point x="371" y="609" type="curve" smooth="yes"/>
      <point x="595" y="656" type="line"/>
      <point x="579" y="757" type="line"/>
      <point x="334" y="704" type="line" smooth="yes"/>
      <point x="148" y="664"/>
      <point x="58" y="541"/>
      <point x="58" y="328" type="curve" smooth="yes"/>
      <point x="58" y="98"/>
      <point x="163" y="-9"/>
    </contour>
    <contour>
      <point x="348" y="82" type="curve" smooth="yes"/>
      <point x="250" y="82"/>
      <point x="181" y="154"/>
      <point x="181" y="243" type="curve" smooth="yes"/>
      <point x="181" y="331"/>
      <point x="249" y="392"/>
      <point x="346" y="392" type="curve" smooth="yes"/>
      <point x="446" y="392"/>
      <point x="511" y="327"/>
      <point x="511" y="240" type="curve" smooth="yes"/>
      <point x="511" y="151"/>
      <point x="444" y="82"/>
    </contour>
  </outline>
</glyph>
<glyph name="zhe-cy" format="2">
  <advance width="862"/>
  <unicode hex="0436"/>
  <anchor x="721" y="0" name="bottomleft"/>
  <anchor x="852" y="0" name="bottomright"/>
  <anchor x="431" y="532" name="top"/>
  <outline>
    <contour>
      <point x="721" y="0" type="line"/>
      <point x="852" y="0" type="line"/>
      <point x="648" y="313" type="line"/>
      <point x="558" y="257" type="line"/>
    </contour>
    <contour>
      <point x="452" y="219" type="line"/>
      <point x="628" y="219" type="line"/>
      <point x="628" y="312" type="line"/>
      <point x="452" y="312" type="line"/>
    </contour>
    <contour>
      <point x="659" y="253" type="line"/>
      <point x="838" y="532" type="line"/>
      <point x="720" y="532" type="line"/>
      <point x="555" y="266" type="line"/>
    </contour>
    <contour>
      <point x="141" y="0" type="line"/>
      <point x="303" y="257" type="line"/>
      <point x="213" y="313" type="line"/>
      <point x="10" y="0" type="line"/>
    </contour>
    <contour>
      <point x="485" y="0" type="line"/>
      <point x="485" y="532" type="line"/>
      <point x="376" y="532" type="line"/>
      <point x="376" y="0" type="line"/>
    </contour>
    <contour>
      <point x="409" y="219" type="line"/>
      <point x="409" y="312" type="line"/>
      <point x="234" y="312" type="line"/>
      <point x="234" y="219" type="line"/>
    </contour>
    <contour>
      <point x="203" y="253" type="line"/>
      <point x="306" y="266" type="line"/>
      <point x="141" y="532" type="line"/>
      <point x="24" y="532" type="line"/>
    </contour>
  </outline>
</glyph>
<glyph name="tse-cy" format="2">
  <advance width="693"/>
  <unicode hex="0446"/>
  <anchor x="455" y="0" name="_bottomleft"/>
  <outline>
    <contour>
      <point x="89" y="0" type="line"/>
      <point x="582" y="0" type="line"/>
      <point x="582" y="532" type="line"/>
      <point x="472" y="532" type="line"/>
      <point x="472" y="96" type="line"/>
      <point x="199" y="96" type="line"/>
      <point x="199" y="532" type="line"/>
      <point x="89" y="532" type="line"/>
    </contour>
    <contour>
      <point x="561" y="-121" type="line"/>
      <point x="664" y="-121" type="line"/>
      <point x="664" y="96" type="line"/>
      <point x="472" y="96" type="line"/>
      <point x="472" y="0" type="line"/>
      <point x="587" y="0" type="line"/>
      <point x="561" y="4" type="line"/>
    </contour>
  </outline>
</glyph>
<glyph name="dje-cy" format="2">
  <advance width="677"/>
  <unicode hex="0452"/>
  <outline>
    <contour>
      <point x="425" y="-200" type="curve" smooth="yes"/>
      <point x="540" y="-200"/>
      <point x="603" y="-129"/>
      <point x="603" y="-16" type="curve" smooth="yes"/>
      <point x="603" y="305" type="line" smooth="yes"/>
      <point x="603" y="464"/>
      <point x="509" y="538"/>
      <point x="380" y="538" type="curve" smooth="yes"/>
      <point x="287" y="538"/>
      <point x="212" y="501"/>
      <point x="176" y="434" type="curve"/>
      <point x="194" y="390" type="line"/>
      <point x="194" y="742" type="line"/>
      <point x="89" y="742" type="line"/>
      <point x="89" y="0" type="line"/>
      <point x="199" y="0" type="line"/>
      <point x="199" y="272" type="line" smooth="yes"/>
      <point x="199" y="383"/>
      <point x="262" y="440"/>
      <point x="357" y="440" type="curve" smooth="yes"/>
      <point x="443" y="440"/>
      <point x="493" y="391"/>
      <point x="493" y="292" type="curve" smooth="yes"/>
      <point x="493" y="-19" type="line" smooth="yes"/>
      <point x="493" y="-78"/>
      <point x="466" y="-108"/>
      <point x="418" y="-108" type="curve" smooth="yes"/>
      <point x="388" y="-108"/>
      <point x="361" y="-100"/>
      <point x="342" y="-85" type="curve"/>
      <point x="308" y="-169" type="line"/>
      <point x="336" y="-191"/>
      <point x="380" y="-200"/>
    </contour>
    <contour>
      <point x="-11" y="597" type="line"/>
      <point x="429" y="597" type="line"/>
      <point x="429" y="674" type="line"/>
      <point x="-11" y="674" type="line"/>
    </contour>
  </outline>
</glyph>
<glyph name="Semisoftsign-cy" format="2">
  <advance width="741"/>
  <unicode hex="048C"/>
  <anchor x="201" y="585" name="center"/>
  <outline>
    <contour>
      <point x="129" y="0" type="line"/>
      <point x="428" y="0" type="line" smooth="yes"/>
      <point x="605" y="0"/>
      <point x="704" y="84"/>
      <point x="704" y="233" type="curve" smooth="yes"/>
      <point x="704" y="378"/>
      <point x="614" y="455"/>
      <point x="448" y="455" type="curve" smooth="yes"/>
      <point x="242" y="455" type="line"/>
      <point x="242" y="742" type="line"/>
      <point x="129" y="742" type="line"/>
    </contour>
    <contour>
      <point x="242" y="90" type="line"/>
      <point x="242" y="365" type="line"/>
      <point x="424" y="365" type="line" smooth="yes"/>
      <point x="534" y="365"/>
      <point x="588" y="320"/>
      <point x="588" y="230" type="curve" smooth="yes"/>
      <point x="588" y="138"/>
      <point x="532" y="90"/>
      <point x="424" y="90" type="curve" smooth="yes"/>
    </contour>
    <contour>
      <point x="30" y="550" type="line"/>
      <point x="452" y="550" type="line"/>
      <point x="452" y="635" type="line"/>
      <point x="30" y="635" type="line"/>
    </contour>
  </outline>
</glyph>
<glyph name="Shha-cy" format="2">
  <advance width="739"/>
  <unicode hex="04BA"/>
  <anchor x="575" y="0" name="bottomleft"/>
  <outline>
    <contour>
      <point x="575" y="0" type="line"/>
      <point x="688" y="0" type="line"/>
      <point x="688" y="225" type="line" smooth="yes"/>
      <point x="688" y="382"/>
      <point x="589" y="470"/>
      <point x="414" y="470" type="curve" smooth="yes"/>
      <point x="348" y="470"/>
      <point x="275" y="454"/>
      <point x="199" y="422" type="curve"/>
      <point x="201" y="321" type="line"/>
      <point x="265" y="353"/>
      <point x="335" y="369"/>
      <point x="401" y="369" type="curve" smooth="yes"/>
      <point x="512" y="369"/>
      <point x="575" y="314"/>
      <point x="575" y="212" type="curve" smooth="yes"/>
    </contour>
    <contour>
      <point x="104" y="0" type="line"/>
      <point x="217" y="0" type="line"/>
      <point x="217" y="700" type="line"/>
      <point x="104" y="700" type="line"/>
    </contour>
  </outline>
</glyph>
<glyph name="Enhook-cy" format="2">
  <advance width="815"/>
  <unicode hex="04C7"/>
  <outline>
    <contour>
      <point x="415" y="-168" type="line"/>
      <point x="535" y="-239"/>
      <point x="711" y="-198"/>
      <point x="711" y="-31" type="curve" smooth="yes"/>
      <point x="711" y="700" type="line"/>
      <point x="598" y="700" type="line"/>
      <point x="598" y="399" type="line"/>
      <point x="217" y="399" type="line"/>
      <point x="217" y="700" type="line"/>
      <point x="104" y="700" type="line"/>
      <point x="104" y="0" type="line"/>
      <point x="217" y="0" type="line"/>
      <point x="217" y="299" type="line"/>
      <point x="598" y="299" type="line"/>
      <point x="598" y="-27" type="line" smooth="yes"/>
      <point x="598" y="-108"/>
      <point x="513" y="-127"/>
      <point x="447" y="-85" type="curve"/>
    </contour>
  </outline>
</glyph>
<glyph name="EnLeftHook-cy" format="2">
  <advance width="815"/>
  <unicode hex="0528"/>
  <outline>
    <contour>
      <point x="-78" y="-168" type="line"/>
      <point x="41" y="-239"/>
      <point x="217" y="-198"/>
      <point x="217" y="-31" type="curve" smooth="yes"/>
      <point x="217" y="299" type="line"/>
      <point x="598" y="299" type="line"/>
      <point x="598" y="0" type="line"/>
      <point x="711" y="0" type="line"/>
      <point x="711" y="700" type="line"/>
      <point x="598" y="700" type="line"/>
      <point x="598" y="399" type="line"/>
      <point x="217" y="399" type="line"/>
      <point x="217" y="700" type="line"/>
      <point x="104" y="700" type="line"/>
      <point x="104" y="-27" type="line" smooth="yes"/>
      <point x="104" y="-108"/>
      <point x="19" y="-127"/>
      <point x="-46" y="-85" type="curve"/>
    </contour>
  </outline>
</glyph>
<glyph name="quoteleft" format="2">
  <advance width="235"/>
  <unicode hex="2018"/>
  <outline>
    <contour>
      <point x="184" y="742" type="line"/>
      <point x="113" y="742" type="line"/>
      <point x="63" y="601" type="line"/>
      <point x="47" y="559"/>
      <point x="43" y="543"/>
      <point x="43" y="522" type="curve" smooth="yes"/>
      <point x="43" y="478"/>
      <point x="74" y="447"/>
      <point x="117" y="447" type="curve" smooth="yes"/>
      <point x="158" y="447"/>
      <point x="190" y="477"/>
      <point x="190" y="522" type="curve" smooth="yes"/>
      <point x="190" y="567"/>
      <point x="159" y="596"/>
      <point x="116" y="596" type="curve"/>
      <point x="130" y="529" type="line"/>
    </contour>
  </outline>
</glyph>
<glyph name="bullet" format="2">
  <advance width="324"/>
  <unicode hex="2022"/>
  <outline>
    <contour>
      <point x="162" y="176" type="curve" smooth="yes"/>
      <point x="215" y="176"/>
      <point x="261" y="218"/>
      <point x="261" y="277" type="curve" smooth="yes"/>
      <point x="261" y="335"/>
      <point x="215" y="377"/>
      <point x="162" y="377" type="curve" smooth="yes"/>
      <point x="109" y="377"/>
      <point x="63" y="335"/>
      <point x="63" y="277" type="curve" smooth="yes"/>
      <point x="63" y="218"/>
      <point x="109" y="176"/>
    </contour>
  </outline>
</glyph>
<glyph name="peso" format="2">
  <advance width="849"/>
  <unicode hex="20B1"/>
  <outline>
    <contour>
      <point x="30" y="353" type="line"/>
      <point x="819" y="353" type="line"/>
      <point x="819" y="416" type="line"/>
      <point x="30" y="416" type="line"/>
    </contour>
    <contour>
      <point x="30" y="491" type="line"/>
      <point x="819" y="491" type="line"/>
      <point x="819" y="554" type="line"/>
      <point x="30" y="554" type="line"/>
    </contour>
    <contour>
      <point x="137" y="0" type="line"/>
      <point x="251" y="0" type="line"/>
      <point x="251" y="261" type="line"/>
      <point x="200" y="207" type="line"/>
      <point x="417" y="207" type="line" smooth="yes"/>
      <point x="600" y="207"/>
      <point x="712" y="300"/>
      <point x="712" y="453" type="curve" smooth="yes"/>
      <point x="712" y="607"/>
      <point x="600" y="700"/>
      <point x="417" y="700" type="curve" smooth="yes"/>
      <point x="137" y="700" type="line"/>
    </contour>
    <contour>
      <point x="251" y="249" type="line"/>
      <point x="251" y="658" type="line"/>
      <point x="200" y="601" type="line"/>
      <point x="413" y="601" type="line" smooth="yes"/>
      <point x="534" y="601"/>
      <point x="597" y="547"/>
      <point x="597" y="453" type="curve" smooth="yes"/>
      <point x="597" y="360"/>
      <point x="534" y="306"/>
      <point x="413" y="306" type="curve" smooth="yes"/>
      <point x="200" y="306" type="line"/>
    </contour>
  </outline>
</glyph>
<glyph name="rupeeIndian" format="2">
  <advance width="721"/>
  <unicode hex="20B9"/>
  <outline>
    <contour>
      <point x="100" y="237" type="line"/>
      <point x="280" y="237" type="line" smooth="yes"/>
      <point x="463" y="237"/>
      <point x="574" y="325"/>
      <point x="574" y="473" type="curve" smooth="yes"/>
      <point x="574" y="557"/>
      <point x="542" y="630"/>
      <point x="451" y="669" type="curve"/>
      <point x="414" y="636" type="line"/>
      <point x="671" y="636" type="line"/>
      <point x="671" y="700" type="line"/>
      <point x="32" y="700" type="line"/>
      <point x="32" y="636" type="line"/>
      <point x="266" y="636" type="line" smooth="yes"/>
      <point x="396" y="637"/>
      <point x="459" y="575"/>
      <point x="459" y="475" type="curve" smooth="yes"/>
      <point x="459" y="396"/>
      <point x="406" y="336"/>
      <point x="276" y="336" type="curve" smooth="yes"/>
      <point x="100" y="336" type="line"/>
    </contour>
    <contour>
      <point x="463" y="0" type="line"/>
      <point x="587" y="0" type="line"/>
      <point x="403" y="279" type="line"/>
      <point x="280" y="279" type="line"/>
    </contour>
    <contour>
      <point x="32" y="497" type="line"/>
      <point x="671" y="497" type="line"/>
      <point x="671" y="561" type="line"/>
      <point x="32" y="561" type="line"/>
    </contour>
  </outline>
</glyph>
<glyph name="integral" format="2">
  <advance width="407"/>
  <unicode hex="222B"/>
  <outline>
    <contour>
      <point x="85" y="-200" type="curve" smooth="yes"/>
      <point x="196" y="-200"/>
      <point x="258" y="-130"/>
      <point x="258" y="-22" type="curve" smooth="yes"/>
      <point x="258" y="570" type="line" smooth="yes"/>
      <point x="258" y="629"/>
      <point x="287" y="659"/>
      <point x="337" y="659" type="curve" smooth="yes"/>
      <point x="365" y="659"/>
      <point x="390" y="650"/>
      <point x="409" y="636" type="curve"/>
      <point x="441" y="719" type="line"/>
      <point x="412" y="741"/>
      <point x="367" y="751"/>
      <point x="321" y="751" type="curve" smooth="yes"/>
      <point x="211" y="751"/>
      <point x="148" y="681"/>
      <point x="148" y="573" type="curve" smooth="yes"/>
      <point x="148" y="-19" type="line" smooth="yes"/>
      <point x="148" y="-78"/>
      <point x="119" y="-108"/>
      <point x="70" y="-108" type="curve" smooth="yes"/>
      <point x="42" y="-108"/>
      <point x="16" y="-100"/>
      <point x="-3" y="-85" type="curve"/>
      <point x="-34" y="-168" type="line"/>
      <point x="-5" y="-190"/>
      <point x="39" y="-200"/>
    </contour>
  </outline>
</glyph>
<glyph name="leftanglebracket-math" format="2">
  <advance width="334"/>
  <unicode hex="27E8"/>
  <outline>
    <contour>
      <point x="196" y="-194" type="line"/>
      <point x="296" y="-194" type="line"/>
      <point x="139" y="274" type="line"/>
      <point x="296" y="742" type="line"/>
      <point x="196" y="742" type="line"/>
      <point x="32" y="274" type="line"/>
    </contour>
  </outline>
</glyph>
<glyph name="Adieresis.alt" format="2">
  <advance width="740"/>
  <outline>
    <contour>
      <point x="-3" y="0" type="line"/>
      <point x="115" y="0" type="line"/>
      <point x="392" y="637" type="line"/>
      <point x="346" y="637" type="line"/>
      <point x="623" y="0" type="line"/>
      <point x="743" y="0" type="line"/>
      <point x="426" y="700" type="line"/>
      <point x="313" y="700" type="line"/>
    </contour>
    <contour>
      <point x="137" y="168" type="line"/>
      <point x="586" y="168" type="line"/>
      <point x="554" y="260" type="line"/>
      <point x="168" y="260" type="line"/>
    </contour>
    <contour>
      <point x="168" y="590" type="curve" smooth="yes"/>
      <point x="199" y="590"/>
      <point x="224" y="613"/>
      <point x="224" y="646" type="curve" smooth="yes"/>
      <point x="224" y="679"/>
      <point x="199" y="702"/>
      <point x="168" y="702" type="curve" smooth="yes"/>
      <point x="137" y="702"/>
      <point x="112" y="679"/>
      <point x="112" y="646" type="curve" smooth="yes"/>
      <point x="112" y="613"/>
      <point x="137" y="590"/>
    </contour>
    <contour>
      <point x="571" y="590" type="curve" smooth="yes"/>
      <point x="602" y="590"/>
      <point x="627" y="613"/>
      <point x="627" y="646" type="curve" smooth="yes"/>
      <point x="627" y="679"/>
      <point x="602" y="702"/>
      <point x="571" y="702" type="curve" smooth="yes"/>
      <point x="540" y="702"/>
      <point x="515" y="679"/>
      <point x="515" y="646" type="curve" smooth="yes"/>
      <point x="515" y="613"/>
      <point x="540" y="590"/>
    </contour>
  </outline>
</glyph>
<glyph name="Ghestroke-cy.loclBSH" format="2">
  <advance width="595"/>
  <outline>
    <contour>
      <point x="159" y="280" type="line"/>
      <point x="505" y="280" type="line"/>
      <point x="505" y="365" type="line"/>
      <point x="159" y="365" type="line"/>
    </contour>
    <component base="Ge-cy"/>
  </outline>
</glyph>
<glyph name="Schwa.ss01" format="2">
  <advance width="817"/>
  <anchor x="408" y="0" name="bottom"/>
  <anchor x="408" y="700" name="top"/>
  <outline>
    <contour>
      <point x="409" y="-9" type="curve" smooth="yes"/>
      <point x="617" y="-9"/>
      <point x="771" y="143"/>
      <point x="771" y="351" type="curve" smooth="yes"/>
      <point x="771" y="557"/>
      <point x="617" y="709"/>
      <point x="404" y="709" type="curve" smooth="yes"/>
      <point x="286" y="709"/>
      <point x="182" y="669"/>
      <point x="116" y="604" type="curve"/>
      <point x="185" y="525" type="line"/>
      <point x="241" y="580"/>
      <point x="320" y="607"/>
      <point x="403" y="607" type="curve" smooth="yes"/>
      <point x="544" y="607"/>
      <point x="656" y="499"/>
      <point x="656" y="355" type="curve" smooth="yes"/>
      <point x="656" y="344" type="line" smooth="yes"/>
      <point x="656" y="192"/>
      <point x="558" y="90"/>
      <point x="409" y="90" type="curve" smooth="yes"/>
      <point x="291" y="90"/>
      <point x="211" y="152"/>
      <point x="183" y="250" type="curve"/>
      <point x="150" y="165" type="line"/>
      <point x="679" y="380" type="line"/>
      <point x="654" y="473" type="line"/>
      <point x="65" y="235" type="line"/>
      <point x="116" y="83"/>
      <point x="245" y="-9"/>
    </contour>
  </outline>
</glyph>
<glyph name="Udieresis.ss01.alt" format="2">
  <advance width="794"/>
  <outline>
    <contour>
      <point x="360" y="-9" type="curve" smooth="yes"/>
      <point x="481" y="-9"/>
      <point x="572" y="39"/>
      <point x="617" y="152" type="curve"/>
      <point x="584" y="170" type="line"/>
      <point x="584" y="0" type="line"/>
      <point x="694" y="0" type="line"/>
      <point x="694" y="700" type="line"/>
      <point x="580" y="700" type="line"/>
      <point x="580" y="304" type="line" smooth="yes"/>
      <point x="580" y="160"/>
      <point x="499" y="93"/>
      <point x="384" y="93" type="curve" smooth="yes"/>
      <point x="278" y="93"/>
      <point x="208" y="158"/>
      <point x="208" y="290" type="curve" smooth="yes"/>
      <point x="208" y="700" type="line"/>
      <point x="94" y="700" type="line"/>
      <point x="94" y="286" type="line" smooth="yes"/>
      <point x="94" y="95"/>
      <point x="196" y="-9"/>
    </contour>
    <contour>
      <point x="316" y="594" type="curve" smooth="yes"/>
      <point x="347" y="594"/>
      <point x="370" y="617"/>
      <point x="370" y="650" type="curve" smooth="yes"/>
      <point x="370" y="683"/>
      <point x="347" y="706"/>
      <point x="316" y="706" type="curve" smooth="yes"/>
      <point x="286" y="706"/>
      <point x="263" y="683"/>
      <point x="263" y="650" type="curve" smooth="yes"/>
      <point x="263" y="617"/>
      <point x="286" y="594"/>
    </contour>
    <contour>
      <point x="471" y="594" type="curve" smooth="yes"/>
      <point x="501" y="594"/>
      <point x="525" y="617"/>
      <point x="525" y="650" type="curve" smooth="yes"/>
      <point x="525" y="683"/>
      <point x="501" y="706"/>
      <point x="471" y="706" type="curve" smooth="yes"/>
      <point x="441" y="706"/>
      <point x="417" y="683"/>
      <point x="417" y="650" type="curve" smooth="yes"/>
      <point x="417" y="617"/>
      <point x="441" y="594"/>
    </contour>
  </outline>
</glyph>
<glyph name="Y.ss01" format="2">
  <advance width="787"/>
  <anchor x="665" y="0" name="bottom"/>
  <anchor x="391" y="700" name="top"/>
  <outline>
    <contour>
      <point x="381" y="-106" type="curve" smooth="yes"/>
      <point x="573" y="-106"/>
      <point x="693" y="3"/>
      <point x="693" y="211" type="curve" smooth="yes"/>
      <point x="693" y="700" type="line"/>
      <point x="579" y="700" type="line"/>
      <point x="579" y="485" type="line" smooth="yes"/>
      <point x="579" y="341"/>
      <point x="498" y="274"/>
      <point x="381" y="274" type="curve" smooth="yes"/>
      <point x="273" y="274"/>
      <point x="203" y="339"/>
      <point x="203" y="471" type="curve" smooth="yes"/>
      <point x="203" y="700" type="line"/>
      <point x="89" y="700" type="line"/>
      <point x="89" y="467" type="line" smooth="yes"/>
      <point x="89" y="276"/>
      <point x="193" y="172"/>
      <point x="369" y="172" type="curve" smooth="yes"/>
      <point x="482" y="172"/>
      <point x="571" y="219"/>
      <point x="616" y="331" type="curve"/>
      <point x="579" y="343" type="line"/>
      <point x="579" y="206" type="line" smooth="yes"/>
      <point x="579" y="63"/>
      <point x="510" y="-4"/>
      <point x="381" y="-4" type="curve" smooth="yes"/>
      <point x="289" y="-4"/>
      <point x="212" y="25"/>
      <point x="151" y="83" type="curve"/>
      <point x="103" y="-7" type="line"/>
      <point x="167" y="-69"/>
      <point x="263" y="-106"/>
    </contour>
  </outline>
</glyph>
<glyph name="Yeru-cy.ss01" format="2">
  <advance width="1001"/>
  <anchor x="501" y="700" name="top"/>
  <outline>
    <contour>
      <point x="381" y="-9" type="curve" smooth="yes"/>
      <point x="570" y="-9"/>
      <point x="680" y="84"/>
      <point x="680" y="238" type="curve" smooth="yes"/>
      <point x="680" y="395"/>
      <point x="570" y="483"/>
      <point x="420" y="483" type="curve" smooth="yes"/>
      <point x="347" y="483"/>
      <point x="264" y="462"/>
      <point x="180" y="418" type="curve"/>
      <point x="191" y="315" type="line"/>
      <point x="253" y="366"/>
      <point x="325" y="390"/>
      <point x="388" y="390" type="curve" smooth="yes"/>
      <point x="485" y="390"/>
      <point x="564" y="335"/>
      <point x="564" y="234" type="curve" smooth="yes"/>
      <point x="564" y="144"/>
      <point x="498" y="86"/>
      <point x="385" y="86" type="curve" smooth="yes"/>
      <point x="270" y="86"/>
      <point x="203" y="147"/>
      <point x="203" y="249" type="curve" smooth="yes"/>
      <point x="203" y="700" type="line"/>
      <point x="90" y="700" type="line"/>
      <point x="90" y="246" type="line" smooth="yes"/>
      <point x="90" y="82"/>
      <point x="193" y="-9"/>
    </contour>
    <contour>
      <point x="784" y="0" type="line"/>
      <point x="897" y="0" type="line"/>
      <point x="897" y="700" type="line"/>
      <point x="784" y="700" type="line"/>
    </contour>
  </outline>
</glyph>
<glyph name="ampersand.sc" format="2">
  <advance width="580"/>
  <outline>
    <contour>
      <point x="250" y="-9" type="curve" smooth="yes"/>
      <point x="401" y="-9"/>
      <point x="515" y="92"/>
      <point x="555" y="258" type="curve"/>
      <point x="469" y="283" type="line"/>
      <point x="438" y="149"/>
      <point x="357" y="75"/>
      <point x="256" y="75" type="curve" smooth="yes"/>
      <point x="182" y="75"/>
      <point x="137" y="111"/>
      <point x="137" y="156" type="curve" smooth="yes"/>
      <point x="137" y="203"/>
      <point x="167" y="233"/>
      <point x="258" y="277" type="curve" smooth="yes"/>
      <point x="378" y="330"/>
      <point x="426" y="380"/>
      <point x="426" y="450" type="curve" smooth="yes"/>
      <point x="426" y="528"/>
      <point x="364" y="577"/>
      <point x="271" y="577" type="curve" smooth="yes"/>
      <point x="169" y="577"/>
      <point x="104" y="522"/>
      <point x="104" y="441" type="curve" smooth="yes"/>
      <point x="104" y="395"/>
      <point x="124" y="355"/>
      <point x="180" y="302" type="curve" smooth="yes"/>
      <point x="512" y="-10" type="line"/>
      <point x="571" y="59" type="line"/>
      <point x="265" y="346" type="line" smooth="yes"/>
      <point x="211" y="397"/>
      <point x="199" y="415"/>
      <point x="199" y="442" type="curve" smooth="yes"/>
      <point x="199" y="474"/>
      <point x="225" y="500"/>
      <point x="272" y="500" type="curve" smooth="yes"/>
      <point x="316" y="500"/>
      <point x="338" y="477"/>
      <point x="338" y="447" type="curve" smooth="yes"/>
      <point x="338" y="412"/>
      <point x="307" y="386"/>
      <point x="212" y="342" type="curve" smooth="yes"/>
      <point x="85" y="284"/>
      <point x="35" y="227"/>
      <point x="35" y="151" type="curve" smooth="yes"/>
      <point x="35" y="58"/>
      <point x="127" y="-9"/>
    </contour>
  </outline>
</glyph>
<glyph name="b.sc" format="2">
  <advance width="647"/>
  <anchor x="329" y="0" name="bottom"/>
  <anchor x="329" y="570" name="top"/>
  <outline>
    <contour>
      <point x="92" y="0" type="line"/>
      <point x="379" y="0" type="line"/>
      <point x="530" y="0"/>
      <point x="608" y="58"/>
      <point x="608" y="156" type="curve" smooth="yes"/>
      <point x="608" y="254"/>
      <point x="540" y="307"/>
      <point x="432" y="307" type="curve"/>
      <point x="417" y="277" type="line"/>
      <point x="513" y="277"/>
      <point x="578" y="331"/>
      <point x="578" y="421" type="curve" smooth="yes"/>
      <point x="578" y="511"/>
      <point x="503" y="570"/>
      <point x="363" y="570" type="curve" smooth="yes"/>
      <point x="92" y="570" type="line"/>
    </contour>
    <contour>
      <point x="203" y="84" type="line"/>
      <point x="203" y="486" type="line"/>
      <point x="351" y="486" type="line" smooth="yes"/>
      <point x="425" y="486"/>
      <point x="467" y="460"/>
      <point x="467" y="408" type="curve" smooth="yes"/>
      <point x="467" y="357"/>
      <point x="425" y="330"/>
      <point x="351" y="330" type="curve" smooth="yes"/>
      <point x="186" y="330" type="line"/>
      <point x="186" y="246" type="line"/>
      <point x="373" y="246" type="line" smooth="yes"/>
      <point x="453" y="246"/>
      <point x="496" y="221"/>
      <point x="496" y="165" type="curve" smooth="yes"/>
      <point x="496" y="110"/>
      <point x="453" y="84"/>
      <point x="373" y="84" type="curve" smooth="yes"/>
    </contour>
  </outline>
</glyph>
<glyph name="c.sc" format="2">
  <advance width="613"/>
  <anchor x="336" y="0" name="bottom"/>
  <anchor x="348" y="571" name="top"/>
  <outline>
    <contour>
      <point x="353" y="-9" type="curve" smooth="yes"/>
      <point x="453" y="-9"/>
      <point x="529" y="21"/>
      <point x="583" y="84" type="curve"/>
      <point x="511" y="156" type="line"/>
      <point x="469" y="109"/>
      <point x="417" y="87"/>
      <point x="356" y="87" type="curve" smooth="yes"/>
      <point x="239" y="87"/>
      <point x="154" y="170"/>
      <point x="154" y="285" type="curve" smooth="yes"/>
      <point x="154" y="400"/>
      <point x="239" y="483"/>
      <point x="356" y="483" type="curve" smooth="yes"/>
      <point x="417" y="483"/>
      <point x="469" y="461"/>
      <point x="511" y="414" type="curve"/>
      <point x="583" y="486" type="line"/>
      <point x="530" y="549"/>
      <point x="454" y="579"/>
      <point x="353" y="579" type="curve" smooth="yes"/>
      <point x="175" y="579"/>
      <point x="42" y="454"/>
      <point x="42" y="285" type="curve" smooth="yes"/>
      <point x="42" y="116"/>
      <point x="175" y="-9"/>
    </contour>
  </outline>
</glyph>
<glyph name="d.sc" format="2">
  <advance width="704"/>
  <anchor x="327" y="0" name="bottom"/>
  <anchor x="183" y="289" name="center"/>
  <anchor x="324" y="570" name="top"/>
  <outline>
    <contour>
      <point x="92" y="0" type="line"/>
      <point x="345" y="0" type="line"/>
      <point x="538" y="0"/>
      <point x="662" y="111"/>
      <point x="662" y="285" type="curve" smooth="yes"/>
      <point x="662" y="459"/>
      <point x="538" y="570"/>
      <point x="345" y="570" type="curve" smooth="yes"/>
      <point x="92" y="570" type="line"/>
    </contour>
    <contour>
      <point x="203" y="92" type="line"/>
      <point x="203" y="478" type="line"/>
      <point x="341" y="478" type="line" smooth="yes"/>
      <point x="472" y="478"/>
      <point x="550" y="406"/>
      <point x="550" y="285" type="curve" smooth="yes"/>
      <point x="550" y="164"/>
      <point x="472" y="92"/>
      <point x="341" y="92" type="curve" smooth="yes"/>
    </contour>
  </outline>
</glyph>
<glyph name="downArrow.case" format="2">
  <advance width="600"/>
  <outline>
    <contour>
      <point x="518" y="331" type="line"/>
      <point x="310" y="198" type="line"/>
      <point x="100" y="331" type="line"/>
      <point x="100" y="238" type="line"/>
      <point x="310" y="95" type="line"/>
      <point x="518" y="238" type="line"/>
    </contour>
    <contour>
      <point x="353" y="548" type="line"/>
      <point x="266" y="548" type="line"/>
      <point x="266" y="180" type="line"/>
      <point x="353" y="180" type="line"/>
    </contour>
  </outline>
</glyph>
<glyph name="eight.tf" format="2">
  <advance width="700"/>
  <outline>
    <contour>
      <point x="349" y="-9" type="curve" smooth="yes"/>
      <point x="528" y="-9"/>
      <point x="644" y="71"/>
      <point x="644" y="200" type="curve" smooth="yes"/>
      <point x="644" y="324"/>
      <point x="535" y="396"/>
      <point x="349" y="396" type="curve" smooth="yes"/>
      <point x="163" y="396"/>
      <point x="56" y="325"/>
      <point x="56" y="200" type="curve" smooth="yes"/>
      <point x="56" y="71"/>
      <point x="170" y="-9"/>
    </contour>
    <contour>
      <point x="349" y="84" type="curve" smooth="yes"/>
      <point x="237" y="84"/>
      <point x="171" y="129"/>
      <point x="171" y="203" type="curve" smooth="yes"/>
      <point x="171" y="276"/>
      <point x="237" y="321"/>
      <point x="349" y="321" type="curve" smooth="yes"/>
      <point x="460" y="321"/>
      <point x="529" y="276"/>
      <point x="529" y="203" type="curve" smooth="yes"/>
      <point x="529" y="129"/>
      <point x="460" y="84"/>
    </contour>
    <contour>
      <point x="349" y="334" type="curve" smooth="yes"/>
      <point x="519" y="334"/>
      <point x="619" y="401"/>
      <point x="619" y="516" type="curve" smooth="yes"/>
      <point x="619" y="635"/>
      <point x="510" y="709"/>
      <point x="349" y="709" type="curve" smooth="yes"/>
      <point x="189" y="709"/>
      <point x="81" y="635"/>
      <point x="81" y="516" type="curve" smooth="yes"/>
      <point x="81" y="401"/>
      <point x="179" y="334"/>
    </contour>
    <contour>
      <point x="349" y="407" type="curve" smooth="yes"/>
      <point x="252" y="407"/>
      <point x="194" y="447"/>
      <point x="194" y="511" type="curve" smooth="yes"/>
      <point x="194" y="577"/>
      <point x="255" y="616"/>
      <point x="349" y="616" type="curve" smooth="yes"/>
      <point x="443" y="616"/>
      <point x="506" y="577"/>
      <point x="506" y="511" type="curve" smooth="yes"/>
      <point x="506" y="447"/>
      <point x="446" y="407"/>
    </contour>
  </outline>
</glyph>
<glyph name="five.osf" format="2">
  <advance width="579"/>
  <outline>
    <contour>
      <point x="275" y="-109" type="curve" smooth="yes"/>
      <point x="458" y="-109"/>
      <point x="546" y="-10"/>
      <point x="546" y="113" type="curve" smooth="yes"/>
      <point x="546" y="237"/>
      <point x="462" y="326"/>
      <point x="255" y="326" type="curve" smooth="yes"/>
      <point x="117" y="326" type="line"/>
      <point x="178" y="270" type="line"/>
      <point x="206" y="557" type="line"/>
      <point x="145" y="501" type="line"/>
      <point x="506" y="501" type="line"/>
      <point x="506" y="600" type="line"/>
      <point x="103" y="600" type="line"/>
      <point x="67" y="226" type="line"/>
      <point x="230" y="226" type="line" smooth="yes"/>
      <point x="384" y="226"/>
      <point x="431" y="180"/>
      <point x="431" y="108" type="curve" smooth="yes"/>
      <point x="431" y="37"/>
      <point x="373" y="-7"/>
      <point x="274" y="-7" type="curve" smooth="yes"/>
      <point x="192" y="-7"/>
      <point x="115" y="22"/>
      <point x="66" y="65" type="curve"/>
      <point x="14" y="-26" type="line"/>
      <point x="77" y="-78"/>
      <point x="176" y="-109"/>
    </contour>
  </outline>
</glyph>
<glyph name="five.tf" format="2">
  <advance width="700"/>
  <outline>
    <contour>
      <point x="331" y="-9" type="curve" smooth="yes"/>
      <point x="522" y="-9"/>
      <point x="613" y="90"/>
      <point x="613" y="213" type="curve" smooth="yes"/>
      <point x="613" y="337"/>
      <point x="525" y="426"/>
      <point x="308" y="426" type="curve" smooth="yes"/>
      <point x="167" y="426" type="line"/>
      <point x="224" y="370" type="line"/>
      <point x="252" y="657" type="line"/>
      <point x="191" y="601" type="line"/>
      <point x="568" y="601" type="line"/>
      <point x="568" y="700" type="line"/>
      <point x="149" y="700" type="line"/>
      <point x="113" y="326" type="line"/>
      <point x="285" y="326" type="line" smooth="yes"/>
      <point x="449" y="326"/>
      <point x="498" y="280"/>
      <point x="498" y="208" type="curve" smooth="yes"/>
      <point x="498" y="137"/>
      <point x="438" y="93"/>
      <point x="332" y="93" type="curve" smooth="yes"/>
      <point x="245" y="93"/>
      <point x="164" y="122"/>
      <point x="112" y="165" type="curve"/>
      <point x="60" y="74" type="line"/>
      <point x="125" y="22"/>
      <point x="228" y="-9"/>
    </contour>
  </outline>
</glyph>
<glyph name="guilsinglright.sc" format="2">
  <advance width="297"/>
  <outline>
    <contour>
      <point x="123" y="112" type="line"/>
      <point x="253" y="285" type="line"/>
      <point x="123" y="458" type="line"/>
      <point x="32" y="458" type="line"/>
      <point x="159" y="285" type="line"/>
      <point x="32" y="112" type="line"/>
    </contour>
  </outline>
</glyph>
<glyph name="hardsign-cy.ss01" format="2">
  <advance width="688"/>
  <outline>
    <contour>
      <point x="194" y="436" type="line"/>
      <point x="291" y="532" type="line"/>
      <point x="7" y="532" type="line"/>
      <point x="7" y="436" type="line"/>
    </contour>
    <contour>
      <point x="416" y="-9" type="curve" smooth="yes"/>
      <point x="568" y="-9"/>
      <point x="656" y="69"/>
      <point x="656" y="196" type="curve" smooth="yes"/>
      <point x="656" y="314"/>
      <point x="580" y="384"/>
      <point x="450" y="384" type="curve" smooth="yes"/>
      <point x="373" y="384"/>
      <point x="319" y="359"/>
      <point x="292" y="326" type="curve"/>
      <point x="292" y="532" type="line"/>
      <point x="182" y="532" type="line"/>
      <point x="182" y="202" type="line" smooth="yes"/>
      <point x="182" y="68"/>
      <point x="265" y="-9"/>
    </contour>
    <contour>
      <point x="417" y="74" type="curve" smooth="yes"/>
      <point x="337" y="74"/>
      <point x="292" y="121"/>
      <point x="292" y="192" type="curve" smooth="yes"/>
      <point x="292" y="238" type="line"/>
      <point x="314" y="279"/>
      <point x="358" y="304"/>
      <point x="419" y="304" type="curve" smooth="yes"/>
      <point x="502" y="304"/>
      <point x="544" y="257"/>
      <point x="544" y="192" type="curve" smooth="yes"/>
      <point x="544" y="128"/>
      <point x="503" y="74"/>
    </contour>
  </outline>
</glyph>
<glyph name="j.sc.ss01" format="2">
  <advance width="456"/>
  <anchor x="212" y="570" name="top"/>
  <outline>
    <contour>
      <point x="174" y="-90" type="curve" smooth="yes"/>
      <point x="301" y="-90"/>
      <point x="370" y="-22"/>
      <point x="370" y="118" type="curve" smooth="yes"/>
      <point x="370" y="570" type="line"/>
      <point x="55" y="570" type="line"/>
      <point x="55" y="478" type="line"/>
      <point x="259" y="478" type="line"/>
      <point x="259" y="109" type="line" smooth="yes"/>
      <point x="259" y="39"/>
      <point x="231" y="5"/>
      <point x="173" y="5" type="curve" smooth="yes"/>
      <point x="127" y="5"/>
      <point x="90" y="28"/>
      <point x="62" y="65" type="curve"/>
      <point x="-7" y="-5" type="line"/>
      <point x="30" y="-60"/>
      <point x="96" y="-90"/>
    </contour>
  </outline>
</glyph>
<glyph name="nine.tf" format="2">
  <advance width="700"/>
  <outline>
    <contour>
      <point x="323" y="709" type="curve" smooth="yes"/>
      <point x="172" y="709"/>
      <point x="60" y="619"/>
      <point x="60" y="485" type="curve" smooth="yes"/>
      <point x="60" y="357"/>
      <point x="167" y="271"/>
      <point x="310" y="271" type="curve" smooth="yes"/>
      <point x="424" y="271"/>
      <point x="516" y="324"/>
      <point x="539" y="394" type="curve"/>
      <point x="507" y="445" type="line"/>
      <point x="515" y="411"/>
      <point x="518" y="371"/>
      <point x="518" y="342" type="curve" smooth="yes"/>
      <point x="518" y="179"/>
      <point x="418" y="89"/>
      <point x="273" y="89" type="curve" smooth="yes"/>
      <point x="223" y="89"/>
      <point x="174" y="100"/>
      <point x="137" y="125" type="curve"/>
      <point x="94" y="34" type="line"/>
      <point x="140" y="6"/>
      <point x="207" y="-9"/>
      <point x="273" y="-9" type="curve" smooth="yes"/>
      <point x="492" y="-9"/>
      <point x="631" y="139"/>
      <point x="631" y="362" type="curve" smooth="yes"/>
      <point x="631" y="588"/>
      <point x="515" y="709"/>
    </contour>
    <contour>
      <point x="327" y="616" type="curve" smooth="yes"/>
      <point x="433" y="616"/>
      <point x="492" y="553"/>
      <point x="492" y="490" type="curve" smooth="yes"/>
      <point x="492" y="415"/>
      <point x="422" y="364"/>
      <point x="331" y="364" type="curve" smooth="yes"/>
      <point x="237" y="364"/>
      <point x="174" y="415"/>
      <point x="174" y="490" type="curve" smooth="yes"/>
      <point x="174" y="566"/>
      <point x="239" y="616"/>
    </contour>
  </outline>
</glyph>
<glyph name="question.sc" format="2">
  <advance width="525"/>
  <outline>
    <contour>
      <point x="199" y="207" type="curve"/>
      <point x="303" y="207" type="line"/>
      <point x="303" y="298"/>
      <point x="460" y="310"/>
      <point x="460" y="436" type="curve" smooth="yes"/>
      <point x="460" y="525"/>
      <point x="371" y="577"/>
      <point x="242" y="577" type="curve" smooth="yes"/>
      <point x="137" y="577"/>
      <point x="56" y="542"/>
      <point x="6" y="492" type="curve"/>
      <point x="82" y="430" type="line"/>
      <point x="117" y="465"/>
      <point x="167" y="484"/>
      <point x="230" y="484" type="curve" smooth="yes"/>
      <point x="305" y="484"/>
      <point x="346" y="458"/>
      <point x="346" y="418" type="curve" smooth="yes"/>
      <point x="346" y="340"/>
      <point x="199" y="324"/>
    </contour>
    <contour>
      <point x="254" y="-6" type="curve" smooth="yes"/>
      <point x="298" y="-6"/>
      <point x="326" y="26"/>
      <point x="326" y="60" type="curve" smooth="yes"/>
      <point x="326" y="95"/>
      <point x="298" y="126"/>
      <point x="254" y="126" type="curve" smooth="yes"/>
      <point x="209" y="126"/>
      <point x="181" y="95"/>
      <point x="181" y="60" type="curve" smooth="yes"/>
      <point x="181" y="26"/>
      <point x="209" y="-6"/>
    </contour>
  </outline>
</glyph>
<glyph name="s.sc" format="2">
  <advance width="536"/>
  <anchor x="276" y="0" name="bottom"/>
  <anchor x="276" y="570" name="top"/>
  <outline>
    <contour>
      <point x="502" y="58"/>
      <point x="502" y="166" type="curve" smooth="yes"/>
      <point x="502" y="376"/>
      <point x="161" y="291"/>
      <point x="161" y="412" type="curve" smooth="yes"/>
      <point x="161" y="453"/>
      <point x="196" y="485"/>
      <point x="282" y="485" type="curve" smooth="yes"/>
      <point x="335" y="485"/>
      <point x="392" y="474"/>
      <point x="442" y="441" type="curve"/>
      <point x="481" y="530" type="line"/>
      <point x="430" y="564"/>
      <point x="355" y="579"/>
      <point x="286" y="579" type="curve" smooth="yes"/>
      <point x="142" y="579"/>
      <point x="50" y="511"/>
      <point x="50" y="405" type="curve" smooth="yes"/>
      <point x="50" y="189"/>
      <point x="391" y="278"/>
      <point x="391" y="156" type="curve" smooth="yes"/>
      <point x="391" y="117"/>
      <point x="359" y="85"/>
      <point x="269" y="85" type="curve" smooth="yes"/>
      <point x="195" y="85"/>
      <point x="122" y="109"/>
      <point x="76" y="145" type="curve"/>
      <point x="33" y="57" type="line"/>
      <point x="82" y="17"/>
      <point x="175" y="-9"/>
      <point x="264" y="-9" type="curve" smooth="yes"/>
      <point x="411" y="-9"/>
    </contour>
  </outline>
</glyph>
<glyph name="schwa.sc.ss01" format="2">
  <advance width="670"/>
  <anchor x="335" y="0" name="bottom"/>
  <anchor x="335" y="570" name="top"/>
  <outline>
    <contour>
      <point x="335" y="-9" type="curve" smooth="yes"/>
      <point x="504" y="-9"/>
      <point x="628" y="116"/>
      <point x="628" y="285" type="curve" smooth="yes"/>
      <point x="628" y="454"/>
      <point x="499" y="579"/>
      <point x="328" y="579" type="curve" smooth="yes"/>
      <point x="231" y="579"/>
      <point x="147" y="545"/>
      <point x="96" y="488" type="curve"/>
      <point x="159" y="415" type="line"/>
      <point x="201" y="459"/>
      <point x="260" y="483"/>
      <point x="324" y="483" type="curve" smooth="yes"/>
      <point x="437" y="483"/>
      <point x="518" y="400"/>
      <point x="518" y="290" type="curve" smooth="yes"/>
      <point x="518" y="277" type="line" smooth="yes"/>
      <point x="518" y="161"/>
      <point x="447" y="84"/>
      <point x="337" y="84" type="curve" smooth="yes"/>
      <point x="244" y="84"/>
      <point x="181" y="140"/>
      <point x="160" y="213" type="curve"/>
      <point x="135" y="145" type="line"/>
      <point x="541" y="313" type="line"/>
      <point x="519" y="394" type="line"/>
      <point x="53" y="202" type="line"/>
      <point x="89" y="73"/>
      <point x="199" y="-9"/>
    </contour>
  </outline>
</glyph>
<glyph name="strokeshortcomb.t" format="2">
  <anchor x="300" y="436" name="_center"/>
  <outline>
    <contour>
      <point x="138" y="398" type="line"/>
      <point x="461" y="398" type="line"/>
      <point x="461" y="474" type="line"/>
      <point x="138" y="474" type="line"/>
    </contour>
  </outline>
</glyph>
<glyph name="w.ss01" format="2">
  <advance width="975"/>
  <anchor x="487" y="0" name="bottom"/>
  <anchor x="487" y="532" name="top"/>
  <outline>
    <contour>
      <point x="311" y="-6" type="curve" smooth="yes"/>
      <point x="413" y="-6"/>
      <point x="476" y="35"/>
      <point x="508" y="125" type="curve"/>
      <point x="467" y="125" type="line"/>
      <point x="501" y="29"/>
      <point x="570" y="-6"/>
      <point x="664" y="-6" type="curve" smooth="yes"/>
      <point x="814" y="-6"/>
      <point x="893" y="84"/>
      <point x="893" y="238" type="curve" smooth="yes"/>
      <point x="893" y="532" type="line"/>
      <point x="783" y="532" type="line"/>
      <point x="783" y="248" type="line" smooth="yes"/>
      <point x="783" y="143"/>
      <point x="748" y="92"/>
      <point x="665" y="92" type="curve" smooth="yes"/>
      <point x="581" y="92"/>
      <point x="543" y="143"/>
      <point x="543" y="248" type="curve" smooth="yes"/>
      <point x="543" y="532" type="line"/>
      <point x="433" y="532" type="line"/>
      <point x="433" y="248" type="line" smooth="yes"/>
      <point x="433" y="143"/>
      <point x="395" y="92"/>
      <point x="311" y="92" type="curve" smooth="yes"/>
      <point x="226" y="92"/>
      <point x="192" y="143"/>
      <point x="192" y="248" type="curve" smooth="yes"/>
      <point x="192" y="532" type="line"/>
      <point x="82" y="532" type="line"/>
      <point x="82" y="238" type="line" smooth="yes"/>
      <point x="82" y="84"/>
      <point x="160" y="-6"/>
    </contour>
  </outline>
</glyph>
<glyph name="x.sc" format="2">
  <advance width="582"/>
  <outline>
    <contour>
      <point x="10" y="0" type="line"/>
      <point x="137" y="0" type="line"/>
      <point x="317" y="244" type="line"/>
      <point x="266" y="244" type="line"/>
      <point x="444" y="0" type="line"/>
      <point x="572" y="0" type="line"/>
      <point x="326" y="327" type="line"/>
      <point x="326" y="257" type="line"/>
      <point x="561" y="570" type="line"/>
      <point x="437" y="570" type="line"/>
      <point x="266" y="338" type="line"/>
      <point x="318" y="338" type="line"/>
      <point x="147" y="570" type="line"/>
      <point x="22" y="570" type="line"/>
      <point x="260" y="252" type="line"/>
      <point x="260" y="330" type="line"/>
    </contour>
  </outline>
</glyph>
<glyph name="yeru-cy.ss01" format="2">
  <advance width="821"/>
  <anchor x="411" y="532" name="top"/>
  <outline>
    <contour>
      <point x="310" y="-9" type="curve" smooth="yes"/>
      <point x="461" y="-9"/>
      <point x="550" y="69"/>
      <point x="550" y="196" type="curve" smooth="yes"/>
      <point x="550" y="314"/>
      <point x="473" y="384"/>
      <point x="344" y="384" type="curve" smooth="yes"/>
      <point x="267" y="384"/>
      <point x="213" y="359"/>
      <point x="186" y="336" type="curve"/>
      <point x="186" y="532" type="line"/>
      <point x="76" y="532" type="line"/>
      <point x="76" y="202" type="line" smooth="yes"/>
      <point x="76" y="68"/>
      <point x="159" y="-9"/>
    </contour>
    <contour>
      <point x="311" y="74" type="curve" smooth="yes"/>
      <point x="231" y="74"/>
      <point x="186" y="121"/>
      <point x="186" y="192" type="curve" smooth="yes"/>
      <point x="186" y="238" type="line"/>
      <point x="208" y="279"/>
      <point x="253" y="304"/>
      <point x="312" y="304" type="curve" smooth="yes"/>
      <point x="395" y="304"/>
      <point x="438" y="257"/>
      <point x="438" y="192" type="curve" smooth="yes"/>
      <point x="438" y="128"/>
      <point x="397" y="74"/>
    </contour>
    <contour>
      <point x="622" y="0" type="line"/>
      <point x="732" y="0" type="line"/>
      <point x="732" y="532" type="line"/>
      <point x="622" y="532" type="line"/>
    </contour>
  </outline>
</glyph>
